<svg width="165" height="49" viewBox="0 0 165 49" fill="none" xmlns="http://www.w3.org/2000/svg">
<path fill-rule="evenodd" clip-rule="evenodd" d="M121.151 34.0291C113.427 9.09392 149.434 18.5566 144.849 1.9288C149.487 3.42863 153.419 6.49116 156.025 10.4933C163.27 33.6693 131.488 14.1702 121.151 34.0291Z" fill="#659598"/>
<path fill-rule="evenodd" clip-rule="evenodd" d="M156.023 10.4818C158.166 13.7727 159.412 17.6989 159.412 21.915C159.412 23.91 159.132 25.8399 158.611 27.6685C146.72 45.1228 138.505 25.3465 121.152 34.0289C131.491 14.1665 163.283 33.6761 156.023 10.4818Z" fill="#2F7E81"/>
<path fill-rule="evenodd" clip-rule="evenodd" d="M138.354 0.902122C140.522 0.902122 142.613 1.22916 144.58 1.83651C144.648 1.8531 144.752 1.88934 144.848 1.92908C149.432 18.5551 113.435 9.09638 121.148 34.021L121.149 34.0276C118.724 30.604 117.299 26.4258 117.299 21.915C117.299 10.312 126.728 0.902122 138.354 0.902122Z" fill="#92B0B4"/>
<path fill-rule="evenodd" clip-rule="evenodd" d="M111.977 41.2103L110.102 46.287C109.869 46.9214 109.571 47.4065 109.208 47.7401C108.843 48.0737 108.353 48.2405 107.737 48.2405C107.414 48.2405 107.081 48.185 106.737 48.0737L106.961 47.0144C107.211 47.0948 107.427 47.1336 107.611 47.1336C107.89 47.1336 108.116 47.0686 108.286 46.9358C108.456 46.804 108.599 46.5586 108.717 46.2005L106.866 41.2103H108.274L109.431 44.8064L110.641 41.2103H111.977ZM106.305 46.2005H105.033V43.2699C105.033 42.8551 104.984 42.5734 104.884 42.4263C104.785 42.2809 104.633 42.2075 104.43 42.2075C104.094 42.2075 103.751 42.4752 103.404 43.0118V46.2005H102.129V43.2699C102.129 42.8267 102.079 42.5376 101.981 42.4053C101.883 42.273 101.741 42.2075 101.553 42.2075C101.21 42.2075 100.861 42.4787 100.507 43.021V46.2005H99.233V41.2103H100.507V41.9718C100.88 41.3854 101.362 41.0911 101.958 41.0911C102.585 41.0911 103.028 41.3854 103.289 41.9718C103.689 41.3854 104.207 41.0911 104.845 41.0911C105.312 41.0911 105.672 41.2413 105.925 41.5439C106.177 41.8443 106.305 42.2809 106.305 42.8481V46.2005ZM97.4838 39.0612L96.1263 40.4925H95.3059L96.0427 39.0612H97.4838ZM97.1758 43.121C97.1382 42.7891 97.0332 42.525 96.8569 42.3285C96.6823 42.1324 96.4671 42.0342 96.2125 42.0342C95.9451 42.0342 95.7176 42.1324 95.5273 42.3285C95.337 42.525 95.2224 42.7891 95.1861 43.121H97.1758ZM98.4096 45.7788C97.8535 46.1468 97.2152 46.3298 96.4938 46.3298C95.6796 46.3298 95.0338 46.0914 94.5565 45.6124C94.0766 45.133 93.8377 44.4955 93.8377 43.7013C93.8377 42.9184 94.0516 42.2879 94.4826 41.8085C94.9113 41.3295 95.4788 41.0911 96.1858 41.0911C96.8363 41.0911 97.3675 41.3181 97.7809 41.7727C98.1926 42.2285 98.4 42.8647 98.4 43.6816V44.0121H95.1769C95.2224 44.3566 95.3716 44.6444 95.6231 44.8736C95.8747 45.1037 96.1766 45.2181 96.5257 45.2181C97.0783 45.2181 97.6317 45.0566 98.1834 44.7308L98.4096 45.7788ZM93.7279 46.1433C93.4575 46.2673 93.1652 46.3298 92.8524 46.3298C92.3401 46.3298 91.949 46.1887 91.6799 45.9062C91.4113 45.6233 91.2774 45.2151 91.2774 44.6819V42.2399H90.6194V41.2103H91.2774V39.6594H92.5497V41.2103H93.4746V42.2399H92.5497V44.4859C92.5497 44.7164 92.5912 44.8959 92.6783 45.0251C92.7627 45.1544 92.8796 45.2181 93.0226 45.2181C93.1985 45.2181 93.3634 45.1841 93.5201 45.1133L93.7279 46.1433ZM89.7269 42.4036C89.1437 42.1765 88.578 42.0635 88.0281 42.0635C87.4388 42.0635 87.1448 42.1914 87.1448 42.4459C87.1448 42.5734 87.2091 42.6765 87.3381 42.7551C87.4672 42.8337 87.7341 42.9219 88.1423 43.021C88.96 43.2323 89.5038 43.4642 89.7772 43.7196C90.0507 43.9759 90.1871 44.285 90.1871 44.6496C90.1871 45.7687 89.4158 46.3298 87.8706 46.3298C87.1684 46.3298 86.4802 46.1957 85.8042 45.9276L86.0304 44.8976C86.6106 45.1919 87.2077 45.3391 87.8203 45.3391C88.5636 45.3391 88.9346 45.1775 88.9346 44.8557C88.9346 44.7308 88.8501 44.623 88.68 44.5335C88.5089 44.4448 88.2228 44.3483 87.8203 44.247C87.1338 44.0837 86.6469 43.8763 86.359 43.6244C86.0715 43.3729 85.928 43.0607 85.928 42.6913C85.928 42.2023 86.1109 41.8137 86.4736 41.5242C86.8385 41.2352 87.3526 41.0911 88.0184 41.0911C88.6563 41.0911 89.3025 41.1989 89.9531 41.4164L89.7269 42.4036ZM85.5059 41.2103L83.6307 46.287C83.3984 46.9214 83.0996 47.4065 82.7365 47.7401C82.372 48.0737 81.8816 48.2405 81.2656 48.2405C80.9436 48.2405 80.6102 48.185 80.2663 48.0737L80.4907 47.0144C80.7406 47.0948 80.9558 47.1336 81.14 47.1336C81.4196 47.1336 81.644 47.0686 81.8159 46.9358C81.9853 46.804 82.1283 46.5586 82.2464 46.2005L80.3949 41.2103H81.8033L82.96 44.8064L84.1697 41.2103H85.5059ZM79.5527 42.4036C78.9696 42.1765 78.4039 42.0635 77.8539 42.0635C77.2646 42.0635 76.9706 42.1914 76.9706 42.4459C76.9706 42.5734 77.0349 42.6765 77.164 42.7551C77.2926 42.8337 77.5599 42.9219 77.9685 43.021C78.7858 43.2323 79.3296 43.4642 79.6031 43.7196C79.8765 43.9759 80.013 44.285 80.013 44.6496C80.013 45.7687 79.2417 46.3298 77.6964 46.3298C76.9942 46.3298 76.306 46.1957 75.6301 45.9276L75.8563 44.8976C76.4364 45.1919 77.0336 45.3391 77.6465 45.3391C78.3899 45.3391 78.7609 45.1775 78.7609 44.8557C78.7609 44.7308 78.676 44.623 78.5062 44.5335C78.3347 44.4448 78.049 44.3483 77.6465 44.247C76.9597 44.0837 76.4727 43.8763 76.1848 43.6244C75.8974 43.3729 75.7543 43.0607 75.7543 42.6913C75.7543 42.2023 75.9368 41.8137 76.2999 41.5242C76.6643 41.2352 77.178 41.0911 77.8447 41.0911C78.4826 41.0911 79.1284 41.1989 79.7789 41.4164L79.5527 42.4036ZM72.6927 39.0612L71.3351 40.4925H70.5148L71.252 39.0612H72.6927ZM71.9367 46.2005H70.6622V41.2103H71.9367V46.2005ZM69.8393 45.7788C69.2985 46.1468 68.6729 46.3298 67.9641 46.3298C67.1324 46.3298 66.4757 46.0944 65.9919 45.622C65.508 45.1483 65.2674 44.509 65.2674 43.7013C65.2674 42.8987 65.508 42.2647 65.9919 41.7958C66.4757 41.3264 67.125 41.0911 67.9423 41.0911C68.5898 41.0911 69.2023 41.2483 69.7841 41.5605L69.5483 42.6197C69.0076 42.3381 68.4764 42.1979 67.9545 42.1979C67.5901 42.1979 67.2707 42.3272 66.9973 42.5848C66.7238 42.8433 66.5873 43.2162 66.5873 43.7013C66.5873 44.1898 66.7256 44.5645 67.0007 44.8256C67.2742 45.0876 67.5966 45.2181 67.9641 45.2181C68.5395 45.2181 69.0876 45.0566 69.6126 44.7308L69.8393 45.7788ZM63.149 44.692V43.8681C62.6143 43.9257 62.2845 43.9663 62.1571 43.9873C62.0298 44.0104 61.8964 44.0593 61.7581 44.1361C61.6212 44.213 61.5175 44.3077 61.4501 44.4221C61.3823 44.5348 61.3495 44.664 61.3495 44.8064C61.3495 44.9531 61.3968 45.0775 61.4943 45.1793C61.5901 45.2788 61.7218 45.3295 61.8868 45.3295C62.3505 45.3295 62.7718 45.1168 63.149 44.692ZM64.6089 46.2005H63.2732C63.1853 45.9931 63.1398 45.8036 63.1398 45.6299C62.7136 46.0975 62.2013 46.3298 61.6024 46.3298C61.1623 46.3298 60.8184 46.194 60.5668 45.9228C60.3139 45.6517 60.1879 45.2919 60.1879 44.8452C60.1879 44.5204 60.2728 44.2361 60.4395 43.9955C60.6062 43.7537 60.856 43.5607 61.1863 43.414C61.5162 43.2668 61.9104 43.1734 62.3711 43.1358L63.149 43.0738V42.9826C63.149 42.4149 62.8501 42.1307 62.2516 42.1307C62.0679 42.1307 61.8224 42.1713 61.5193 42.2551C61.2161 42.3381 60.9457 42.4363 60.7081 42.5525L60.4054 41.6321C60.7037 41.4749 61.0463 41.3465 61.4344 41.2448C61.8224 41.1422 62.1663 41.0911 62.4686 41.0911C63.1065 41.0911 63.5908 41.2531 63.922 41.5749C64.2537 41.8967 64.4203 42.3691 64.4203 42.9922V45.0125C64.4203 45.4832 64.4833 45.8783 64.6089 46.2005ZM59.7986 46.2005H55.5539V45.2378L58.0809 42.2399H55.6226V41.2103H59.5627V42.1307L57.0357 45.1705H59.7986V46.2005ZM53.5046 44.692V43.8681C52.97 43.9257 52.6401 43.9663 52.5128 43.9873C52.3855 44.0104 52.252 44.0593 52.1134 44.1361C51.9769 44.213 51.8732 44.3077 51.8054 44.4221C51.738 44.5348 51.7052 44.664 51.7052 44.8064C51.7052 44.9531 51.752 45.0775 51.8495 45.1793C51.9458 45.2788 52.0775 45.3295 52.2424 45.3295C52.7062 45.3295 53.1275 45.1168 53.5046 44.692ZM54.9646 46.2005H53.6284C53.5409 45.9931 53.495 45.8036 53.495 45.6299C53.0693 46.0975 52.557 46.3298 51.958 46.3298C51.5179 46.3298 51.1736 46.194 50.9225 45.9228C50.6696 45.6517 50.5436 45.2919 50.5436 44.8452C50.5436 44.5204 50.6285 44.2361 50.7952 43.9955C50.9618 43.7537 51.2117 43.5607 51.5415 43.414C51.8714 43.2668 52.2665 43.1734 52.7267 43.1358L53.5046 43.0738V42.9826C53.5046 42.4149 53.2058 42.1307 52.6069 42.1307C52.4231 42.1307 52.1781 42.1713 51.8745 42.2551C51.5717 42.3381 51.3009 42.4363 51.0638 42.5525L50.7606 41.6321C51.0594 41.4749 51.4015 41.3465 51.79 41.2448C52.1781 41.1422 52.522 41.0911 52.8239 41.0911C53.4622 41.0911 53.9461 41.2531 54.2777 41.5749C54.6093 41.8967 54.776 42.3691 54.776 42.9922V45.0125C54.776 45.4832 54.8386 45.8783 54.9646 46.2005ZM49.6887 46.2005H48.4173V43.2699C48.4173 42.8551 48.367 42.5734 48.2681 42.4263C48.1693 42.2809 48.017 42.2075 47.814 42.2075C47.4776 42.2075 47.135 42.4752 46.7876 43.0118V46.2005H45.5132V43.2699C45.5132 42.8267 45.4629 42.5376 45.3653 42.4053C45.2664 42.273 45.1251 42.2075 44.9365 42.2075C44.5935 42.2075 44.2453 42.4787 43.8913 43.021V46.2005H42.6169V41.2103H43.8913V41.9718C44.2637 41.3854 44.7462 41.0911 45.3421 41.0911C45.9691 41.0911 46.4122 41.3854 46.673 41.9718C47.072 41.3854 47.5909 41.0911 48.2288 41.0911C48.6956 41.0911 49.0556 41.2413 49.3085 41.5439C49.5614 41.8443 49.6887 42.2809 49.6887 42.8481V46.2005ZM39.4078 39.0612L38.0498 40.4925H37.2295L37.9667 39.0612H39.4078ZM38.6518 46.2005H37.3773V41.2103H38.6518V46.2005ZM36.2267 46.2005H34.9558V43.2699C34.9558 42.5608 34.7103 42.2075 34.2186 42.2075C33.7832 42.2075 33.3934 42.4494 33.0491 42.9345V46.2005H31.7747V41.2103H33.0491V41.8189C33.4481 41.333 33.9639 41.0911 34.5974 41.0911C35.094 41.0911 35.49 41.2448 35.7853 41.5539C36.0793 41.8609 36.2267 42.2927 36.2267 42.8481V46.2005ZM30.5864 46.2005H29.312V39.0808H30.5864V46.2005ZM27.5633 39.0612L26.2052 40.4925H25.3849L26.1217 39.0612H27.5633ZM26.8856 44.692V43.8681C26.3514 43.9257 26.0211 43.9663 25.8942 43.9873C25.7664 44.0104 25.633 44.0593 25.4947 44.1361C25.3582 44.213 25.2541 44.3077 25.1867 44.4221C25.1189 44.5348 25.0861 44.664 25.0861 44.8064C25.0861 44.9531 25.1334 45.0775 25.2309 45.1793C25.3267 45.2788 25.4589 45.3295 25.6238 45.3295C26.0876 45.3295 26.5084 45.1168 26.8856 44.692ZM28.3455 46.2005H27.0098C26.9219 45.9931 26.8764 45.8036 26.8764 45.6299C26.4502 46.0975 25.9379 46.3298 25.339 46.3298C24.8993 46.3298 24.555 46.194 24.3038 45.9228C24.0505 45.6517 23.9245 45.2919 23.9245 44.8452C23.9245 44.5204 24.0094 44.2361 24.1761 43.9955C24.3428 43.7537 24.5926 43.5607 24.9229 43.414C25.2528 43.2668 25.647 43.1734 26.1077 43.1358L26.8856 43.0738V42.9826C26.8856 42.4149 26.5872 42.1307 25.9882 42.1307C25.8045 42.1307 25.5595 42.1713 25.2559 42.2551C24.9527 42.3381 24.6823 42.4363 24.4452 42.5525L24.1415 41.6321C24.4403 41.4749 24.7829 41.3465 25.171 41.2448C25.5595 41.1422 25.9034 41.0911 26.2052 41.0911C26.8431 41.0911 27.3274 41.2531 27.6586 41.5749C27.9903 41.8967 28.1569 42.3691 28.1569 42.9922V45.0125C28.1569 45.4832 28.2199 45.8783 28.3455 46.2005ZM23.7692 41.2876L23.5352 42.4935C23.4061 42.4018 23.2713 42.3547 23.1296 42.3547C22.969 42.3547 22.8168 42.4084 22.6693 42.5162C22.5215 42.6223 22.3705 42.807 22.2183 43.0708C22.0643 43.3349 21.9873 43.4891 21.9873 43.5327V46.2005H20.7124V41.2103H21.9873V42.1979C22.1601 41.7923 22.336 41.5063 22.5166 41.3395C22.6973 41.1745 22.9174 41.0911 23.1751 41.0911C23.4127 41.0911 23.6104 41.1566 23.7692 41.2876ZM20.2946 46.1433C20.0242 46.2673 19.7319 46.3298 19.4191 46.3298C18.9068 46.3298 18.5152 46.1887 18.2466 45.9062C17.978 45.6233 17.8445 45.2151 17.8445 44.6819V42.2399H17.1861V41.2103H17.8445V39.6594H19.1159V41.2103H20.0417V42.2399H19.1159V44.4859C19.1159 44.7164 19.1584 44.8959 19.2446 45.0251C19.3294 45.1544 19.4458 45.2181 19.5889 45.2181C19.7647 45.2181 19.9297 45.1841 20.0872 45.1133L20.2946 46.1433ZM16.5793 46.2005H15.3079V43.2699C15.3079 42.5608 15.0629 42.2075 14.5711 42.2075C14.1358 42.2075 13.746 42.4494 13.4017 42.9345V46.2005H12.1272V41.2103H13.4017V41.8189C13.8007 41.333 14.3165 41.0911 14.95 41.0911C15.4466 41.0911 15.8425 41.2448 16.1378 41.5539C16.4318 41.8609 16.5793 42.2927 16.5793 42.8481V46.2005ZM10.0701 43.121C10.0325 42.7891 9.92702 42.525 9.75115 42.3285C9.57658 42.1324 9.36134 42.0342 9.10671 42.0342C8.83983 42.0342 8.61189 42.1324 8.42157 42.3285C8.23126 42.525 8.11663 42.7891 8.08032 43.121H10.0701ZM11.3039 45.7788C10.7478 46.1468 10.1095 46.3298 9.38803 46.3298C8.57383 46.3298 7.92807 46.0914 7.45032 45.6124C6.97082 45.133 6.73193 44.4955 6.73193 43.7013C6.73193 42.9184 6.94587 42.2879 7.37638 41.8085C7.80557 41.3295 8.37301 41.0911 9.08046 41.0911C9.73059 41.0911 10.2617 41.3181 10.6752 41.7727C11.0868 42.2285 11.2942 42.8647 11.2942 43.6816V44.0121H8.07113C8.11663 44.3566 8.26583 44.6444 8.51739 44.8736C8.76896 45.1037 9.07083 45.2181 9.41952 45.2181C9.97253 45.2181 10.526 45.0566 11.0772 44.7308L11.3039 45.7788ZM6.61294 45.5452C5.8473 46.0682 4.95654 46.3298 3.93672 46.3298C2.90552 46.3298 2.08214 46.0075 1.46439 45.3653C0.84838 44.7212 0.539062 43.8829 0.539062 42.8481C0.539062 41.805 0.85144 40.9553 1.47532 40.2982C2.10095 39.6432 2.92127 39.3144 3.93672 39.3144C4.82748 39.3144 5.68848 39.5598 6.51974 40.0519L6.13343 41.1387C5.42161 40.6824 4.68923 40.4536 3.93672 40.4536C3.3299 40.4536 2.83946 40.6806 2.46539 41.1334C2.09308 41.588 1.90626 42.1586 1.90626 42.8481C1.90626 43.5105 2.10883 44.0641 2.51264 44.5151C2.91515 44.9649 3.39115 45.1902 3.93672 45.1902C4.73473 45.1902 5.49992 44.9487 6.23405 44.4662L6.61294 45.5452Z" fill="#006B6D"/>
<path fill-rule="evenodd" clip-rule="evenodd" d="M111.5 28.6762C109.832 29.7704 107.889 30.3175 105.666 30.3175C103.418 30.3175 101.623 29.6442 100.277 28.3003C98.9335 26.9532 98.2588 25.1993 98.2588 23.0349C98.2588 20.8531 98.9405 19.0755 100.301 17.701C101.664 16.3296 103.452 15.6423 105.666 15.6423C107.608 15.6423 109.486 16.1554 111.298 17.1845L110.455 19.4585C108.903 18.5044 107.307 18.0254 105.666 18.0254C104.344 18.0254 103.274 18.5009 102.459 19.448C101.647 20.3985 101.24 21.5918 101.24 23.0349C101.24 24.4195 101.681 25.5783 102.562 26.5223C103.439 27.4628 104.477 27.9344 105.666 27.9344C107.406 27.9344 109.075 27.4287 110.674 26.4197L111.5 28.6762ZM87.9158 27.9785H91.3896C93.4826 27.9785 94.5313 27.2881 94.5313 25.9066C94.5313 24.6557 93.4826 24.0331 91.3896 24.0331H87.9158V27.9785ZM87.9158 21.8586H91.3896C93.1435 21.8586 94.0207 21.257 94.0207 20.0567C94.0207 18.9454 93.1435 18.3913 91.3896 18.3913H87.9158V21.8586ZM94.6512 22.8502C95.5214 23.0109 96.2135 23.3628 96.7241 23.9099C97.2377 24.4605 97.491 25.1307 97.491 25.9237C97.491 27.2196 96.9804 28.2662 95.9567 29.0591C94.9321 29.856 93.62 30.2524 92.0231 30.2524H85.2365V16.1178H91.6705C93.3562 16.1178 94.6582 16.4427 95.5695 17.0889C96.4839 17.7386 96.9398 18.6516 96.9398 19.8344C96.9398 20.5557 96.7376 21.1884 96.3264 21.7285C95.9186 22.2691 95.3599 22.6415 94.6512 22.8502ZM82.7388 30.2524H79.6382L73.3447 20.1558V30.2524H70.7341V16.1178H73.8452L80.1282 26.235V16.1178H82.7388V30.2524ZM69.0008 26.3345H63.4777V23.5204H69.0008V26.3345ZM61.1003 19.5641C59.5686 18.6616 57.9927 18.2141 56.3722 18.2141C55.4574 18.2141 54.7281 18.3608 54.1864 18.6581C53.6452 18.9555 53.3749 19.3419 53.3749 19.8139C53.3749 20.1217 53.5424 20.392 53.885 20.6278C54.2276 20.8601 55.1078 21.1168 56.5332 21.3971C57.753 21.6434 58.7566 21.9032 59.545 22.1695C60.336 22.4363 61.0181 22.8707 61.5938 23.4759C62.1691 24.0811 62.457 24.905 62.457 25.9446C62.457 27.3156 61.8677 28.4199 60.6956 29.2613C59.5205 30.1022 58.0614 30.5227 56.314 30.5227C54.0976 30.5227 52.0077 30.0166 50.0411 29.001L50.8837 26.7275C52.8503 27.6676 54.6353 28.1396 56.2318 28.1396C57.2183 28.1396 58.0133 27.9584 58.6166 27.5925C59.2225 27.2296 59.5244 26.741 59.5244 26.1254C59.5244 25.746 59.3393 25.418 58.9692 25.1443C58.5956 24.8709 57.6536 24.5871 56.1324 24.2928C54.9437 24.0571 53.9672 23.8143 53.2134 23.5545C52.4561 23.2982 51.8055 22.8773 51.2538 22.2896C50.7056 21.7014 50.4318 20.898 50.4318 19.8754C50.4318 18.6717 50.966 17.701 52.0383 16.9588C53.1075 16.2204 54.5531 15.8475 56.3722 15.8475C58.3423 15.8475 60.206 16.323 61.9635 17.2701L61.1003 19.5641ZM48.3759 30.2524H45.495V16.1178H48.3759V30.2524ZM43.0073 30.2524H40.1264V19.7458L36.5117 30.2524H34.5967L31.3251 19.7458V30.2524H28.7141V16.1178H32.75L35.7308 25.6744L38.9924 16.1178H43.0073V30.2524ZM26.5077 30.2524H15.3667V16.1178H26.3879V18.6035H18.2481V21.7971H25.3225V24.1837H18.2481V27.7667H26.5077V30.2524ZM3.72472 22.7201H6.9968C8.68251 22.7201 9.52514 22.0088 9.52514 20.5867C9.52514 19.9235 9.29546 19.4104 8.84001 19.0445C8.38107 18.6751 7.71651 18.4939 6.84587 18.4939H3.72472V22.7201ZM14.2117 30.2524H10.8818L6.60612 25.1032H3.72472V30.2524H0.84375V16.1178H7.09612C8.77832 16.1178 10.0869 16.5077 11.0258 17.2906C11.9682 18.07 12.4372 19.1642 12.4372 20.5662C12.4372 21.6159 12.1668 22.4979 11.6287 23.2161C11.091 23.9339 10.3818 24.4059 9.50458 24.6317L14.2117 30.2524Z" fill="#231F20"/>
<path fill-rule="evenodd" clip-rule="evenodd" d="M158.613 27.6669C156.106 36.4755 147.984 42.9285 138.356 42.9285C131.25 42.9285 124.966 39.4123 121.152 34.0295C138.505 25.3471 146.721 45.1243 158.613 27.6669Z" fill="#006B6D"/>
<path fill-rule="evenodd" clip-rule="evenodd" d="M163.363 15.3272L163.365 15.3341L163.368 15.3389C163.445 15.6337 163.521 15.938 163.592 16.2511C163.663 16.5606 163.727 16.8676 163.784 17.1702C164.083 18.7468 164.236 20.3554 164.236 21.9696H164.239V21.9705H164.236C164.236 29.0784 161.349 35.5131 156.683 40.1693C152.017 44.8251 145.571 47.706 138.45 47.7069V47.7095H138.448H138.446V47.7069C133.787 47.7064 129.309 46.4533 125.428 44.1885C124.801 43.8226 124.185 43.4266 123.58 43.0013C120.684 40.9626 118.196 38.3215 116.321 35.1943H0.845703V33.9713H117.061L117.065 33.9787C118.882 37.2037 121.372 39.9152 124.303 41.9769C124.867 42.3743 125.455 42.7511 126.061 43.1052C129.759 45.2626 134.019 46.4563 138.446 46.4568V46.4546H138.448H138.45V46.4568C145.221 46.4559 151.353 43.7143 155.794 39.2825C160.236 34.8498 162.984 28.7287 162.984 21.9705H162.981V21.9696H162.984C162.984 20.4405 162.838 18.9088 162.552 17.4007C162.495 17.1034 162.434 16.8113 162.369 16.5253C162.304 16.2428 162.233 15.9528 162.154 15.6577L162.155 15.6572L162.155 15.6555L163.363 15.3272Z" fill="#231F20"/>
</svg>
